<svg width="12" height="12" viewBox="0 0 12 12" fill="none" xmlns="http://www.w3.org/2000/svg">
<path fill-rule="evenodd" clip-rule="evenodd" d="M11.8374 3.7287C11.8374 4.1426 11.482 4.47714 11.1267 4.47714C10.6825 4.47714 10.3272 4.1426 10.3272 3.7287V2.5375L7.12908 5.7522C6.86257 6.04256 6.41839 6.03896 6.15188 5.74499C5.79654 5.45012 5.79654 4.97671 6.15188 4.68634L9.26113 1.49689H8.1951C7.75093 1.49689 7.39558 1.16144 7.39558 0.748444C7.39558 0.335447 7.75093 0 8.1951 0H11.1267C11.482 0 11.8374 0.335447 11.8374 0.748444V3.7287ZM0 3.72961C0 4.14261 0.355343 4.47806 0.710686 4.47806C1.15486 4.47806 1.51021 4.14261 1.51021 3.72961V2.55645L4.61946 5.74861C4.88596 6.04077 5.33014 6.04077 5.68549 5.74861C5.95199 5.45644 5.95199 4.98213 5.68549 4.68997L2.4874 1.4978H3.64226C4.08644 1.4978 4.44179 1.16326 4.44179 0.74936C4.44179 0.336363 4.08644 0.000915527 3.64226 0.000915527H0.710686C0.355343 0.00181727 0 0.336363 0 0.74936V3.72961ZM11.2893 7.52196C11.6446 7.52196 12 7.85741 12 8.2704V11.2507C12 11.6646 11.6446 12 11.2893 12H8.3577C7.91352 12 7.55818 11.6646 7.55818 11.2507C7.55818 10.8377 7.91352 10.5022 8.3577 10.5022H9.51257L6.31448 7.24603C5.95914 6.95386 5.95914 6.47955 6.31448 6.18738C6.58099 5.89522 7.02517 5.89522 7.29167 6.18738L10.4898 9.44357V8.2704C10.4898 7.85741 10.8451 7.52196 11.2893 7.52196ZM0.162598 8.26948C0.162598 7.85649 0.517941 7.52194 0.873283 7.52194C1.31746 7.52194 1.6728 7.85649 1.6728 8.26948V9.42461L4.78205 6.19097C5.04856 5.8961 5.49274 5.8934 5.84808 6.18286C6.11459 6.47322 6.11459 6.94753 5.84808 7.2415L2.65 10.5013H3.80486C4.24904 10.5013 4.60438 10.8367 4.60438 11.2497C4.60438 11.6627 4.24904 11.9982 3.80486 11.9982H0.873283C0.517941 11.9982 0.162598 11.6627 0.162598 11.2497V8.26948Z" fill="white"/>
</svg>
