<svg width="16" height="16" viewBox="0 0 16 16" fill="none" xmlns="http://www.w3.org/2000/svg">
<path d="M7.99999 2.6665V0.666504L5.33332 3.33317L7.99999 5.99984V3.99984C10.2067 3.99984 12 5.79317 12 7.99984C12 8.67317 11.8333 9.31317 11.5333 9.8665L12.5067 10.8398C13.0267 10.0198 13.3333 9.0465 13.3333 7.99984C13.3333 5.05317 10.9467 2.6665 7.99999 2.6665ZM7.99999 11.9998C5.79332 11.9998 3.99999 10.2065 3.99999 7.99984C3.99999 7.3265 4.16666 6.6865 4.46666 6.13317L3.49332 5.15984C2.97332 5.97984 2.66666 6.95317 2.66666 7.99984C2.66666 10.9465 5.05332 13.3332 7.99999 13.3332V15.3332L10.6667 12.6665L7.99999 9.99984V11.9998Z" fill="black" fill-opacity="0.87"/>
</svg>
